<svg width="13" height="14" viewBox="0 0 13 14" fill="none" xmlns="http://www.w3.org/2000/svg">
<path d="M0.854004 4.10158L1.5805 12.8717C1.63256 13.5041 2.17129 14 2.80616 14H9.50004C10.1349 14 10.6736 13.5041 10.7257 12.8717L11.4522 4.10158H0.854004ZM4.10192 12.3594C3.88722 12.3594 3.70658 12.1924 3.69297 11.9749L3.28281 5.35767C3.26878 5.13137 3.44061 4.93671 3.66653 4.92268C3.90083 4.90625 4.0871 5.0801 4.10151 5.3064L4.51167 11.9236C4.52618 12.1579 4.34077 12.3594 4.10192 12.3594ZM6.56324 11.9492C6.56324 12.1759 6.37979 12.3594 6.15308 12.3594C5.92638 12.3594 5.74293 12.1759 5.74293 11.9492V5.33205C5.74293 5.10534 5.92638 4.92189 6.15308 4.92189C6.37979 4.92189 6.56324 5.10534 6.56324 5.33205V11.9492ZM9.02335 5.35769L8.6132 11.9749C8.59972 12.1902 8.42026 12.3696 8.17821 12.3586C7.9523 12.3446 7.78047 12.1499 7.7945 11.9236L8.20465 5.30642C8.21868 5.08013 8.41695 4.91549 8.63964 4.92271C8.86555 4.93674 9.03738 5.1314 9.02335 5.35769Z" fill="#25213B"/>
<path d="M11.4844 1.64062H9.02343V1.23047C9.02343 0.551961 8.47147 0 7.79296 0H4.51172C3.83321 0 3.28125 0.551961 3.28125 1.23047V1.64062H0.820312C0.367254 1.64062 0 2.00788 0 2.46094C0 2.91394 0.367254 3.28125 0.820312 3.28125C4.59282 3.28125 7.712 3.28125 11.4844 3.28125C11.9374 3.28125 12.3047 2.91394 12.3047 2.46094C12.3047 2.00788 11.9374 1.64062 11.4844 1.64062ZM8.20312 1.64062H4.10156V1.23047C4.10156 1.00417 4.28542 0.820312 4.51172 0.820312H7.79296C8.01926 0.820312 8.20312 1.00417 8.20312 1.23047V1.64062Z" fill="#25213B"/>
</svg>
