<svg width="12" height="12" viewBox="0 0 12 12" fill="none" xmlns="http://www.w3.org/2000/svg">
<path fill-rule="evenodd" clip-rule="evenodd" d="M9.71425 4.95243L10.6667 4C11.4031 3.26362 11.4031 2.06971 10.6667 1.33333C9.9303 0.596954 8.7364 0.596952 8.00002 1.33333L7.03169 2.30166C7.66123 3.41181 8.58866 4.33196 9.71425 4.95243ZM5.57683 3.75652L1.52306 7.81029L1.52305 7.8103C1.098 8.23535 0.885471 8.44788 0.745737 8.70897C0.606002 8.97007 0.547057 9.2648 0.429167 9.85425L0.147104 11.2646C0.0805817 11.5972 0.0473206 11.7635 0.141929 11.8581C0.236537 11.9527 0.402842 11.9194 0.735452 11.8529L2.14577 11.5709C2.73522 11.453 3.02994 11.394 3.29104 11.2543C3.55214 11.1145 3.76467 10.902 4.18973 10.477L8.25559 6.41109C7.18143 5.72544 6.26873 4.81883 5.57683 3.75652Z" fill="#25213B"/>
</svg>
