<svg width="16" height="17" viewBox="0 0 16 17" fill="none" xmlns="http://www.w3.org/2000/svg">
<path d="M0 8.10645C0 4.33904 0 2.45534 1.16464 1.28497C1.16926 1.28033 1.17388 1.2757 1.17852 1.27109C2.34889 0.106445 4.22843 0.106445 7.9875 0.106445V0.106445C11.7466 0.106445 13.6261 0.106445 14.7965 1.27109C14.8011 1.2757 14.8057 1.28033 14.8104 1.28497C15.975 2.45534 15.975 4.33904 15.975 8.10645V8.10645C15.975 11.8739 15.975 13.7576 14.8104 14.9279C14.8057 14.9326 14.8011 14.9372 14.7965 14.9418C13.6261 16.1064 11.7466 16.1064 7.9875 16.1064V16.1064C4.22843 16.1064 2.34889 16.1064 1.17852 14.9418C1.17388 14.9372 1.16926 14.9326 1.16464 14.9279C0 13.7576 0 11.8739 0 8.10645V8.10645Z" fill="#7E869E" fill-opacity="0.25"/>
<path d="M6.6001 7.662C6.6001 8.61389 5.82985 9.38422 4.88135 9.38422C3.93285 9.38422 3.1626 8.61389 3.1626 7.662C3.1626 6.7101 3.93285 5.93977 4.88135 5.93977C5.82985 5.93977 6.6001 6.7101 6.6001 7.662Z" stroke="#222222"/>
<path d="M6.65625 7.662H11.0937M12.8687 9.43978V7.812C12.8687 7.72916 12.8016 7.662 12.7187 7.662H11.0937M11.0937 7.662V9.43978" stroke="#222222" stroke-linecap="round"/>
</svg>
