<svg width="22" height="27" viewBox="0 0 22 27" fill="none" xmlns="http://www.w3.org/2000/svg">
<path d="M12.1873 1H6.47619C3.89469 1 2.60394 1 1.80197 1.81359C1 2.62718 1 3.93664 1 6.55556V20.4444C1 23.0634 1 24.3728 1.80197 25.1864C2.60394 26 3.89469 26 6.47619 26H14.6905C17.272 26 18.5627 26 19.3647 25.1864C20.1667 24.3728 20.1667 23.0634 20.1667 20.4444V9.09504C20.1667 8.52733 20.1667 8.24347 20.0625 7.98824C19.9582 7.733 19.7604 7.53228 19.3647 7.13085L14.1234 1.81359C13.7277 1.41216 13.5299 1.21145 13.2783 1.10572C13.0267 1 12.7469 1 12.1873 1Z" stroke="#3660B3" stroke-width="2"/>
<path d="M6.83337 14.3333L14.3334 14.3333" stroke="#C71217" stroke-width="2" stroke-linecap="round"/>
<path d="M6.83337 20.1667L11.8334 20.1667" stroke="#C71217" stroke-width="2" stroke-linecap="round"/>
<path d="M11.8334 1V6.55556C11.8334 7.86501 11.8334 8.51974 12.2402 8.92654C12.647 9.33333 13.3017 9.33333 14.6112 9.33333H20.1667" stroke="#3660B3" stroke-width="2"/>
</svg>
