<svg width="15" height="16" viewBox="0 0 15 16" fill="none" xmlns="http://www.w3.org/2000/svg">
<path d="M13.5377 16H11.1939C10.8062 16 10.4908 15.6846 10.4908 15.2969V13.2682C10.117 13.5792 9.72055 13.8539 9.37521 14.0735C8.50749 14.6254 7.50564 15.1115 6.82283 15.3118C6.74873 15.3336 6.67029 15.3336 6.59614 15.3118C5.91339 15.1115 4.91154 14.6254 4.04382 14.0735C3.29016 13.5942 2.2926 12.8527 1.82032 12.0423C0.474188 9.73286 0 3.74457 0 2.63532C0 2.46363 0.0830314 2.31016 0.216719 2.23482C1.43932 1.54557 3.52535 0.814877 6.41686 0.0631564C6.50289 0.0407813 6.64458 0 6.70954 0C6.77451 0 6.91617 0.0407813 7.0022 0.0631564C9.36314 0.67697 11.2006 1.28207 12.4636 1.86163C12.5812 1.91563 12.6328 2.05475 12.5788 2.17238C12.5248 2.29 12.3857 2.34157 12.2681 2.28763C11.03 1.7195 9.21864 1.12372 6.88426 0.516782C6.80751 0.496845 6.74848 0.48147 6.70954 0.471032C6.67054 0.481501 6.61151 0.496845 6.53479 0.516782C3.01369 1.43225 1.29397 2.16972 0.468938 2.63079C0.468813 2.63219 0.468751 2.63372 0.468751 2.63535C0.468751 3.67994 0.947158 9.61346 2.22529 11.8064C2.55679 12.3752 3.29201 13.0399 4.29538 13.6781C5.12114 14.2032 6.06567 14.6642 6.70951 14.8566C7.35339 14.6641 8.29795 14.2032 9.12364 13.6781C10.127 13.0399 10.8622 12.3752 11.1937 11.8064C11.1986 11.7981 11.2034 11.7897 11.2082 11.7813H11.1939C11.0278 11.7813 10.875 11.7234 10.7545 11.6267C10.1039 12.6586 7.99339 13.9123 6.78945 14.3374C6.77083 14.3442 6.75108 14.3486 6.73061 14.3505C6.73054 14.3505 6.73042 14.3505 6.73023 14.3505C6.72308 14.3512 6.71598 14.3513 6.70867 14.3514C6.70851 14.3514 6.70839 14.3514 6.70823 14.3514C6.67867 14.3512 6.65039 14.3457 6.62439 14.3355C5.70454 14.0097 4.21857 13.1936 3.26798 12.3182C3.17273 12.2305 3.16663 12.0822 3.25429 11.987C3.34204 11.8917 3.49026 11.8857 3.58548 11.9733C4.36316 12.6895 5.58898 13.4054 6.47498 13.7751L6.47504 7.56245H1.93825C2.20313 9.07699 2.56782 10.5322 3.03526 11.3342C3.10044 11.446 3.06263 11.5895 2.95079 11.6547C2.83897 11.7199 2.69547 11.6821 2.63029 11.5702C1.47347 9.58552 1.01028 4.35376 0.949564 3.06135C0.945189 2.96813 0.996564 2.88116 1.08035 2.84001C2.28569 2.24769 4.15801 1.61932 6.64551 0.972346C6.66408 0.967096 6.68358 0.964064 6.7037 0.963564H6.70423H6.70426C6.70773 0.963502 6.71133 0.963502 6.71479 0.963564H6.7153C6.73548 0.964064 6.75504 0.967096 6.77367 0.972377C9.26114 1.61935 11.1334 2.24769 12.3387 2.84001C12.4225 2.88116 12.4739 2.96816 12.4695 3.06138C12.4592 3.28019 12.4427 3.53623 12.4212 3.81248H12.8882C12.9336 3.22341 12.9503 2.82272 12.9503 2.63532C12.9503 2.63297 12.9502 2.63079 12.9499 2.62894C12.8544 2.56007 12.8239 2.42888 12.8831 2.32385C12.9466 2.21113 13.0895 2.17122 13.2023 2.23479C13.336 2.31013 13.4191 2.4636 13.4191 2.63529C13.4191 2.82769 13.4026 3.2306 13.3581 3.8157C13.4689 3.83432 13.5533 3.9307 13.5533 4.04682C13.5533 4.17629 13.4484 4.2812 13.3189 4.2812H11.1939C11.0647 4.2812 10.9596 4.38632 10.9596 4.51557V6.85933C10.9596 6.98858 11.0647 7.0937 11.1939 7.0937H13.5377C13.6669 7.0937 13.7721 6.98858 13.7721 6.85933V5.18523L12.6107 6.34667C12.5191 6.4382 12.3707 6.43814 12.2792 6.34667L11.497 5.56445C11.4054 5.47289 11.4054 5.32451 11.497 5.23298C11.5885 5.14151 11.7369 5.14145 11.8284 5.23298L12.4449 5.84951L14.4133 3.88113C14.5048 3.78963 14.6532 3.78963 14.7447 3.88113C14.8363 3.9727 14.8363 4.12107 14.7447 4.2126L14.2408 4.71651V6.85936C14.2408 7.24705 13.9254 7.56248 13.5377 7.56248H12.9068C12.8802 7.72139 12.8529 7.87798 12.825 8.03123H13.3189C13.4484 8.03123 13.5533 8.13614 13.5533 8.26561C13.5533 8.39508 13.4484 8.49999 13.3189 8.49999H11.1939C11.0647 8.49999 10.9596 8.60511 10.9596 8.73436C10.9596 8.73436 10.9608 11.1056 10.9631 11.1188C10.9639 11.1226 10.9647 11.1265 10.9654 11.1304C10.9892 11.2346 11.0826 11.3125 11.1939 11.3125H13.5377C13.6669 11.3125 13.7721 11.2074 13.7721 11.0781V9.40402L12.6107 10.5655C12.5191 10.657 12.3707 10.657 12.2792 10.5655L11.497 9.78324C11.4054 9.69168 11.4054 9.5433 11.497 9.45177C11.5885 9.36027 11.7369 9.36024 11.8284 9.45177L12.4449 10.0683L14.4133 8.09992C14.5048 8.00842 14.6532 8.00842 14.7447 8.09992C14.8363 8.19149 14.8363 8.33986 14.7447 8.43139L14.2408 8.9353V11.0781C14.2408 11.4658 13.9254 11.7813 13.5377 11.7813H11.7398C11.6934 11.8736 11.6462 11.961 11.5987 12.0424C11.5581 12.1121 11.5135 12.1814 11.4656 12.25H13.3189C13.4484 12.25 13.5533 12.3549 13.5533 12.4844C13.5533 12.6139 13.4484 12.7188 13.3189 12.7188H11.1939C11.0647 12.7188 10.9596 12.8239 10.9596 12.9532V15.2969C10.9596 15.4262 11.0647 15.5313 11.1939 15.5313H13.5377C13.6669 15.5313 13.7721 15.4262 13.7721 15.2969V13.6228L12.6107 14.7842C12.5191 14.8758 12.3707 14.8757 12.2792 14.7842L11.497 14.002C11.4054 13.9105 11.4054 13.7621 11.497 13.6706C11.5885 13.5791 11.7369 13.579 11.8284 13.6706L12.4449 14.2871L14.4133 12.3187C14.5048 12.2272 14.6532 12.2272 14.7447 12.3187C14.8363 12.4103 14.8363 12.5587 14.7447 12.6502L14.2408 13.1541V15.2969C14.2408 15.6846 13.9254 16 13.5377 16ZM6.94383 7.56248L6.94376 13.776C8.21611 13.2504 9.91958 12.1306 10.3838 11.3342C10.4202 11.2717 10.4567 11.2038 10.4928 11.1316C10.4914 11.114 10.4908 11.0961 10.4908 11.0781V8.73436C10.4908 8.34667 10.8062 8.03123 11.1939 8.03123H11.3939C11.4231 7.8787 11.4517 7.72208 11.4796 7.56248H6.94383ZM11.871 8.03123H12.3484C12.3767 7.87827 12.4044 7.7217 12.4314 7.56248H11.9553C11.9279 7.72177 11.8997 7.87833 11.871 8.03123ZM6.94383 7.09373H10.5309C10.5049 7.02039 10.4908 6.94148 10.4908 6.85936V4.5156C10.4908 4.12791 10.8062 3.81248 11.1939 3.81248H11.951C11.9686 3.59038 11.9828 3.38119 11.9933 3.19391C11.1729 2.80657 9.65668 2.22004 6.94392 1.50169L6.94383 7.09373ZM1.85963 7.09373H6.47508L6.47514 1.50169C3.76241 2.22004 2.24613 2.80663 1.42572 3.19394C1.47682 4.12098 1.62057 5.60626 1.85963 7.09373Z" fill="#25213B"/>
</svg>
