<svg width="22" height="25" viewBox="0 0 22 25" fill="none" xmlns="http://www.w3.org/2000/svg">
<path d="M9.50352 12.6429C13.0159 12.6427 14.2797 9.12586 14.6105 6.23704C15.018 2.67833 13.3351 -6.10352e-05 9.50352 -6.10352e-05C5.67239 -6.10352e-05 3.98865 2.67812 4.39651 6.23704C4.72767 9.12586 5.99107 12.6431 9.50352 12.6429Z" fill="#3660B3"/>
<path d="M17.1828 14.1068C17.2959 14.1068 17.4081 14.1102 17.5197 14.1164C17.3525 13.878 17.159 13.6677 16.9326 13.4986C16.2577 12.9949 15.3836 12.8296 14.6109 12.526C14.2347 12.3782 13.8979 12.2314 13.5817 12.0643C12.5145 13.2347 11.1229 13.8469 9.50226 13.8471C7.88218 13.8471 6.49064 13.2348 5.42356 12.0643C5.10736 12.2315 4.77046 12.3782 4.39439 12.526C3.62166 12.8296 2.74762 12.9949 2.07267 13.4986C0.905454 14.3698 0.603807 16.3296 0.366801 17.6665C0.171205 18.77 0.0398029 19.8962 0.00144992 21.0171C-0.0282624 21.8854 0.400426 22.0071 1.12681 22.2692C2.03632 22.5972 2.97541 22.8408 3.92083 23.0404C5.74665 23.426 7.62867 23.7222 9.50258 23.7355C10.4106 23.729 11.3204 23.6558 12.2249 23.5385C11.5552 22.5682 11.1624 21.3928 11.1624 20.1273C11.1624 16.8075 13.8632 14.1068 17.1828 14.1068Z" fill="#3660B3"/>
<path d="M17.1836 15.3109C14.5236 15.3109 12.3672 17.4674 12.3672 20.1273C12.3672 22.7872 14.5236 24.9437 17.1836 24.9437C19.8435 24.9437 22 22.7872 22 20.1273C21.9999 17.4673 19.8435 15.3109 17.1836 15.3109ZM19.2907 20.9536H18.0099V22.2344C18.0099 22.6908 17.64 23.0608 17.1836 23.0608C16.7272 23.0608 16.3572 22.6908 16.3572 22.2344V20.9536H15.0764C14.62 20.9536 14.25 20.5836 14.25 20.1272C14.25 19.6708 14.62 19.3008 15.0764 19.3008H16.3572V18.02C16.3572 17.5636 16.7272 17.1936 17.1836 17.1936C17.64 17.1936 18.0099 17.5636 18.0099 18.02V19.3008H19.2907C19.7471 19.3008 20.1171 19.6708 20.1171 20.1272C20.1171 20.5837 19.7472 20.9536 19.2907 20.9536Z" fill="#C71217"/>
</svg>
