<svg width="12" height="17" viewBox="0 0 12 17" fill="none" xmlns="http://www.w3.org/2000/svg">
<path fill-rule="evenodd" clip-rule="evenodd" d="M2.08492 0H7.45534L12 4.74378V13.9561C12 15.1098 11.0688 16.0469 9.91508 16.0469H2.08492C0.937037 16.0469 3.29015e-10 15.1098 3.29015e-10 13.9561V2.08492C-2.02748e-05 0.937037 0.937037 0 2.08492 0Z" fill="#00733B"/>
<path opacity="0.302" fill-rule="evenodd" clip-rule="evenodd" d="M7.44958 0V4.70279H12.0001L7.44958 0Z" fill="white"/>
<path d="M4.98986 11.6838H4.21095L3.67801 10.7877L3.14506 11.6838H2.36029L3.28563 10.1259L2.47158 8.77305H3.25633L3.67799 9.47583L4.0938 8.77305H4.87857L4.07036 10.1318L4.98986 11.6838ZM5.26511 11.6838V8.77305H6.00889V11.0512H7.2739V11.6837H5.26511V11.6838ZM8.50377 11.7189C8.21093 11.7189 7.95326 11.6252 7.73072 11.4436C7.51402 11.2679 7.39105 11.0454 7.37347 10.7818L8.01183 10.5944C8.02941 10.735 8.08797 10.858 8.18754 10.9517C8.29295 11.0454 8.41008 11.0922 8.53893 11.0922C8.64434 11.0922 8.73219 11.0688 8.80246 11.022C8.86688 10.9751 8.90201 10.9107 8.90201 10.8346C8.90201 10.7702 8.87274 10.7174 8.82002 10.6706C8.76731 10.6296 8.69703 10.5944 8.61504 10.5652C8.53305 10.5359 8.4335 10.5066 8.33392 10.4832C8.22851 10.4539 8.12308 10.4188 8.02353 10.3719C7.91812 10.3309 7.82441 10.2782 7.74242 10.2138C7.65456 10.1552 7.59015 10.0674 7.53743 9.95608C7.48472 9.85067 7.45544 9.72182 7.45544 9.57542C7.45544 9.3353 7.55499 9.13618 7.75997 8.97805C7.96496 8.81406 8.21093 8.73793 8.49789 8.73793C8.78486 8.73793 9.03668 8.8082 9.24752 8.94291C9.45836 9.08346 9.59305 9.26502 9.64577 9.48756L8.97813 9.76868C8.94885 9.64569 8.89027 9.54614 8.80828 9.47001C8.72629 9.39973 8.62088 9.35874 8.49789 9.35874C8.40418 9.35874 8.3339 9.38215 8.27535 9.41731C8.22263 9.45245 8.19922 9.50516 8.19922 9.56958C8.19922 9.62815 8.23435 9.68085 8.30463 9.72184C8.3749 9.75698 8.46861 9.78626 8.57402 9.80384C8.67943 9.82142 8.79656 9.85069 8.91955 9.89169C9.0484 9.93854 9.15967 9.9854 9.27094 10.0498C9.37635 10.1084 9.4642 10.2079 9.53448 10.3368C9.61061 10.4715 9.64575 10.6296 9.64575 10.8112C9.64575 11.0806 9.54034 11.3031 9.3295 11.4671C9.11865 11.6311 8.84346 11.7189 8.50377 11.7189Z" fill="white"/>
</svg>
