<svg width="21" height="21" viewBox="0 0 21 21" fill="none" xmlns="http://www.w3.org/2000/svg">
<path fill-rule="evenodd" clip-rule="evenodd" d="M1.17157 1.26416C0 2.43574 0 4.32135 0 8.09259V10.0926C0 13.8638 0 15.7494 1.17157 16.921C2.34315 18.0926 4.22876 18.0926 8 18.0926H10C13.7712 18.0926 15.6569 18.0926 16.8284 16.921C18 15.7494 18 13.8638 18 10.0926V8.09259C18 5.35124 18 3.60625 17.55 2.40761V13.5926C16.6856 13.5926 15.8566 13.2492 15.2454 12.638L14.5689 11.9615L14.5689 11.9615C14.0527 11.4453 13.7946 11.1872 13.5188 11.0446C12.9425 10.7465 12.2575 10.7465 11.6812 11.0446C11.4054 11.1872 11.1473 11.4453 10.6311 11.9615L10.5293 12.0633C10.0974 12.4952 9.88149 12.7111 9.66369 12.7863C9.32658 12.9027 8.95299 12.8308 8.68322 12.5975C8.50893 12.4468 8.38864 12.1661 8.14807 11.6047L8.1 11.4926C7.53224 10.1678 7.24837 9.50545 6.80751 9.1824C6.3241 8.82817 5.70732 8.70939 5.12694 8.85875C4.59763 8.99496 4.08805 9.50454 3.0689 10.5237L1.35 12.2426V1.09946C1.2887 1.15161 1.22927 1.20647 1.17157 1.26416Z" fill="#222222"/>
<path d="M8 1H13C14.9139 1 16.2487 1.00212 17.2558 1.13753C18.2342 1.26907 18.7523 1.50966 19.1213 1.87868C19.4903 2.2477 19.7309 2.76579 19.8625 3.74416C19.9979 4.75129 20 6.08611 20 8V13C20 14.9139 19.9979 16.2487 19.8625 17.2558C19.7309 18.2342 19.4903 18.7523 19.1213 19.1213C18.7523 19.4903 18.2342 19.7309 17.2558 19.8625C16.2487 19.9979 14.9139 20 13 20H8C6.08611 20 4.75129 19.9979 3.74416 19.8625C2.76579 19.7309 2.2477 19.4903 1.87868 19.1213C1.50966 18.7523 1.26907 18.2342 1.13753 17.2558C1.00212 16.2487 1 14.9139 1 13V8C1 6.08611 1.00212 4.75129 1.13753 3.74416C1.26907 2.76579 1.50966 2.2477 1.87868 1.87868C2.2477 1.50966 2.76579 1.26907 3.74416 1.13753C4.75129 1.00212 6.08611 1 8 1Z" stroke="#222222" stroke-width="2"/>
<circle cx="13.6498" cy="7.34998" r="2.1" fill="#222222"/>
</svg>
