<svg width="14" height="18" viewBox="0 0 14 18" fill="none" xmlns="http://www.w3.org/2000/svg">
<path fill-rule="evenodd" clip-rule="evenodd" d="M2.34332 0H8.36131L13.4618 5.31635V15.6567C13.4618 16.952 12.4138 18 11.1229 18H2.34332C1.04797 18 3.70166e-10 16.952 3.70166e-10 15.6567V2.34332C-2.27426e-05 1.04797 1.04795 0 2.34332 0Z" fill="#E5252A"/>
<path opacity="0.302" fill-rule="evenodd" clip-rule="evenodd" d="M8.35657 0V5.27587H13.4615L8.35657 0Z" fill="white"/>
<path d="M2.60352 13.4303V10.1424H4.00232C4.34865 10.1424 4.62302 10.2369 4.82991 10.4303C5.03681 10.6192 5.14026 10.8756 5.14026 11.1949C5.14026 11.5142 5.03681 11.7706 4.82991 11.9595C4.62302 12.1529 4.34865 12.2474 4.00232 12.2474H3.4446V13.4303H2.60352ZM3.4446 11.5323H3.90787C4.0338 11.5323 4.13275 11.5053 4.20023 11.4423C4.26769 11.3838 4.30369 11.3029 4.30369 11.1949C4.30369 11.087 4.26771 11.006 4.20023 10.9476C4.13277 10.8846 4.03382 10.8576 3.90787 10.8576H3.4446V11.5323ZM5.48657 13.4303V10.1424H6.65149C6.88087 10.1424 7.09677 10.1739 7.29916 10.2414C7.50155 10.3089 7.68597 10.4033 7.84788 10.5338C8.00981 10.6597 8.14024 10.8306 8.23469 11.0465C8.32464 11.2624 8.37413 11.5098 8.37413 11.7886C8.37413 12.063 8.32466 12.3104 8.23469 12.5262C8.14024 12.7421 8.00981 12.9131 7.84788 13.039C7.68595 13.1694 7.50155 13.2639 7.29916 13.3313C7.09677 13.3988 6.88087 13.4303 6.65149 13.4303H5.48657ZM6.30966 12.7152H6.55253C6.68296 12.7152 6.80441 12.7017 6.91685 12.6702C7.02479 12.6387 7.12825 12.5892 7.2272 12.5218C7.32165 12.4543 7.39812 12.3598 7.45209 12.2339C7.50605 12.108 7.53305 11.9595 7.53305 11.7886C7.53305 11.6132 7.50605 11.4648 7.45209 11.3389C7.39812 11.2129 7.32165 11.1185 7.2272 11.051C7.12825 10.9835 7.02481 10.9341 6.91685 10.9026C6.80441 10.8711 6.68296 10.8576 6.55253 10.8576H6.30966V12.7152ZM8.79692 13.4303V10.1424H11.1358V10.8576H9.638V11.3838H10.8344V12.0945H9.638V13.4303H8.79692Z" fill="white"/>
</svg>
