<svg width="16" height="14" viewBox="0 0 16 14" fill="none" xmlns="http://www.w3.org/2000/svg">
<path d="M3.83239 3.29946C4.06353 2.35741 4.5967 1.52109 5.34725 0.923314C6.09779 0.325537 7.02269 0.000564589 7.97507 7.34987e-07C8.92745 -0.000563119 9.85271 0.323314 10.6039 0.920202C11.3552 1.51709 11.8893 2.35277 12.1215 3.29455C13.2168 3.39936 14.2305 3.93038 14.9518 4.7773C15.6732 5.62421 16.0469 6.72193 15.9953 7.84244C15.9437 8.96294 15.4707 10.0201 14.6746 10.7943C13.8785 11.5686 12.8206 12.0003 11.7204 12H10.1161C9.97424 12 9.83821 11.9426 9.73792 11.8403C9.63763 11.738 9.58129 11.5993 9.58129 11.4547C9.58129 11.3101 9.63763 11.1714 9.73792 11.0691C9.83821 10.9669 9.97424 10.9094 10.1161 10.9094H11.7204C12.1418 10.9107 12.5593 10.8273 12.949 10.664C13.3388 10.5008 13.6932 10.2608 13.992 9.95792C14.5955 9.34615 14.936 8.51498 14.9385 7.64727C14.9409 6.77957 14.6053 5.94639 14.0053 5.33104C13.4053 4.71568 12.5901 4.36856 11.7391 4.36603C11.6019 4.37656 11.4657 4.33475 11.3571 4.24871C11.2484 4.16266 11.1749 4.03852 11.1509 3.90036C11.042 3.12173 10.6612 2.40929 10.0786 1.8939C9.49591 1.3785 8.75044 1.09475 7.97909 1.09475C7.20773 1.09475 6.46226 1.3785 5.8796 1.8939C5.29694 2.40929 4.91619 3.12173 4.8073 3.90036C4.77933 4.03372 4.70683 4.15305 4.60218 4.23798C4.49753 4.3229 4.36721 4.36816 4.23348 4.36603C3.38248 4.36603 2.56634 4.71073 1.96459 5.32429C1.36285 5.93785 1.02479 6.77002 1.02479 7.63773C1.02479 8.50544 1.36285 9.33761 1.96459 9.95117C2.56634 10.5647 3.38248 10.9094 4.23348 10.9094H5.83782C5.97966 10.9094 6.11568 10.9669 6.21597 11.0691C6.31626 11.1714 6.3726 11.3101 6.3726 11.4547C6.3726 11.5993 6.31626 11.738 6.21597 11.8403C6.11568 11.9426 5.97966 12 5.83782 12H4.23348C3.14139 11.9883 2.09502 11.5513 1.30879 10.7783C0.522559 10.0054 0.0560007 8.95516 0.00472164 7.84279C-0.0465565 6.73042 0.321326 5.64017 1.03299 4.79545C1.74465 3.95073 2.74619 3.41551 3.83239 3.29946Z" fill="white"/>
<path d="M5.8491 7.94522C5.7546 8.05237 5.62804 8.11166 5.49667 8.11032C5.36531 8.10898 5.23964 8.04712 5.14675 7.93805C5.05385 7.82899 5.00116 7.68145 5.00002 7.52721C4.99888 7.37298 5.04938 7.22439 5.14064 7.11344L7.64577 4.17223C7.73973 4.06195 7.86715 4 8 4C8.13285 4 8.26027 4.06195 8.35423 4.17223L10.8594 7.11344C10.9506 7.22439 11.0011 7.37298 11 7.52721C10.9988 7.68145 10.9461 7.82899 10.8533 7.93805C10.7604 8.04712 10.6347 8.10898 10.5033 8.11032C10.372 8.11166 10.2454 8.05237 10.1509 7.94522L8.50103 6.00813V13.4118C8.50103 13.5678 8.44824 13.7174 8.35428 13.8277C8.26032 13.938 8.13288 14 8 14C7.86712 14 7.73968 13.938 7.64572 13.8277C7.55176 13.7174 7.49897 13.5678 7.49897 13.4118V6.00813L5.8491 7.94522Z" fill="white"/>
</svg>
