<svg width="39" height="49" viewBox="0 0 39 49" fill="none" xmlns="http://www.w3.org/2000/svg">
<path d="M31.4547 42.7966H36.0101C36.7921 42.7966 37.4261 42.1627 37.4261 41.3806V11.9694L29.7662 4.3097H5.74368C4.96151 4.3097 4.32754 4.94378 4.32754 5.72575V9.56263" stroke="black" stroke-width="1.5" stroke-miterlimit="10" stroke-linecap="round" stroke-linejoin="round"/>
<path d="M4.32755 12.8644V41.3806C4.32755 42.1626 4.96152 42.7967 5.74369 42.7967H10.3541" stroke="black" stroke-width="1.5" stroke-miterlimit="10" stroke-linecap="round" stroke-linejoin="round"/>
<path d="M4.32754 39.4869H2.41615C1.63407 39.4869 1 38.853 1 38.0709V2.41606C1 1.63408 1.63407 1.00001 2.41615 1.00001H32.1531C32.9501 1.00001 33.5961 1.64609 33.5961 2.44292V8.13956" stroke="black" stroke-width="1.5" stroke-miterlimit="10" stroke-linecap="round" stroke-linejoin="round"/>
<path d="M29.7662 4.30974V11.968L37.4261 11.9693" stroke="black" stroke-width="1.5" stroke-miterlimit="10" stroke-linejoin="round"/>
<path d="M12.4106 17.5925H29.3781" stroke="black" stroke-width="1.5" stroke-miterlimit="10" stroke-linecap="round" stroke-linejoin="round"/>
<path d="M12.4106 21.7754H29.3781" stroke="black" stroke-width="1.5" stroke-miterlimit="10" stroke-linecap="round" stroke-linejoin="round"/>
<path d="M26.026 26.0417H29.3781" stroke="black" stroke-width="1.5" stroke-miterlimit="10" stroke-linecap="round" stroke-linejoin="round"/>
<path d="M12.4106 26.0417H22.688" stroke="black" stroke-width="1.5" stroke-miterlimit="10" stroke-linecap="round" stroke-linejoin="round"/>
<path d="M20.8943 44.086V35.6117" stroke="black" stroke-width="1.5" stroke-miterlimit="10" stroke-linecap="round" stroke-linejoin="round"/>
<path d="M17.7928 38.6185L20.8943 35.517L23.996 38.6185" stroke="black" stroke-width="1.5" stroke-miterlimit="10" stroke-linecap="round" stroke-linejoin="round"/>
<path d="M29.0933 39.8016C29.0933 35.2736 25.4226 31.6031 20.8944 31.6031C16.3662 31.6031 12.6955 35.2736 12.6955 39.8016C12.6955 44.3295 16.3662 48 20.8944 48C25.4226 48 29.0933 44.3295 29.0933 39.8016Z" stroke="black" stroke-width="1.5" stroke-miterlimit="10" stroke-linecap="round" stroke-linejoin="round"/>
</svg>
