<svg width="16" height="10" viewBox="0 0 16 10" fill="none" xmlns="http://www.w3.org/2000/svg">
<path d="M15.8983 4.72165C15.7554 4.54677 12.3497 0.439545 7.99993 0.439545C3.6502 0.439545 0.244313 4.54677 0.101532 4.72149C-0.0338438 4.8874 -0.0338438 5.11242 0.101532 5.27833C0.244313 5.45322 3.6502 9.56044 7.99993 9.56044C12.3497 9.56044 15.7554 5.45319 15.8983 5.27847C16.0339 5.11259 16.0339 4.8874 15.8983 4.72165ZM7.99993 8.61691C4.79589 8.61691 2.02085 5.89086 1.19938 4.99967C2.01979 4.1077 4.78901 1.38308 7.99993 1.38308C11.2038 1.38308 13.9787 4.10865 14.8005 5.00031C13.9801 5.89225 11.2108 8.61691 7.99993 8.61691Z" fill="white"/>
<path d="M8.00079 2.1694C6.25572 2.1694 4.83594 3.43926 4.83594 5.00004C4.83594 6.56082 6.25572 7.83068 8.00079 7.83068C9.74586 7.83068 11.1656 6.56082 11.1656 5.00004C11.1656 3.43926 9.74586 2.1694 8.00079 2.1694ZM8.00079 6.88711C6.83735 6.88711 5.89091 6.04059 5.89091 5.00004C5.89091 3.95949 6.83738 3.11297 8.00079 3.11297C9.1642 3.11297 10.1107 3.95949 10.1107 5.00004C10.1107 6.04059 9.16423 6.88711 8.00079 6.88711Z" fill="white"/>
</svg>
